{"title":"Stag 2013 DvDRip Xvid AC3 BL4CKP34RL","uid":9698476,"size":1354246742,"categoryP":"video","categoryS":"movies","magnet":"?xt=urn:btih:fed04bcda90c0feb9929fd2ae99500c522a86419&amp;dn=Stag+2013+DvDRip+Xvid+AC3+BL4CKP34RL&amp;tr=udp%3A%2F%2Ftracker.openbittorrent.com%3A80&amp;tr=udp%3A%2F%2Fopen.demonii.com%3A1337&amp;tr=udp%3A%2F%2Ftracker.coppersurfer.tk%3A6969&amp;tr=udp%3A%2F%2Fexodus.desync.com%3A6969","seeders":1,"leechers":0,"uploader":"AliBaloch","files":4,"time":1393966062,"description":" Fine Release Brought to you from - BL4CKP34RL \n \n\n******************************************************************************************\n Stag.2013.DVDRip.XViD.AC3-BL4CKP34RL \n******************************************************************************************\n\nRipper ...........: J4CKSP4RR0W IMDB Rating.......: 4.0/10 \nVideo Codec.......: XViD Release Date......: 3 March 2014\nAudio Codec.......: AC3 Theatre Date......: 20 August 2013 \nAudio Bitrate.....: 448 kbps Runtime...........: 1hr 20min 29sec\nSubtitles.........: na Language..........: ENGLISH\nResolution........: 720x400 IMDb URL..........: http://www.imdb.com/title/tt1821617/\n\n\nDETAILS:\n\n\nFormat : AVI\nFormat/Info : Audio Video Interleave\nFile size : 1.24 GiB\nDuration : 1h 20mn\nOverall bit rate : 2 207 Kbps\nWriting library : VirtualDub build 13719/release\n\nVideo\nID : 0\nFormat : MPEG-4 Visual\nFormat profile : Advanced Simple@L5\nFormat settings, BVOP : 2\nFormat settings, QPel : No\nFormat settings, GMC : No warppoints\nFormat settings, Matrix : Default (H.263)\nCodec ID : XVID\nCodec ID/Hint : XviD\nDuration : 1h 20mn\nBit rate : 1 750 Kbps\nWidth : 720 pixels\nHeight : 400 pixels\nDisplay aspect ratio : 16:9\nFrame rate : 25.000 fps\nColor space : YUV\nChroma subsampling : 4:2:0\nBit depth : 8 bits\nScan type : Progressive\nCompression mode : Lossy\nBits/(Pixel*Frame) : 0.243\nStream size : 1 007 MiB (79%)\nWriting library : XviD 1.2.1 (UTC 2008-12-04)\n\nAudio\nID : 1\nFormat : AC-3\nFormat/Info : Audio Coding 3\nMode extension : CM (complete main)\nFormat settings, Endianness : Big\nCodec ID : 2000\nDuration : 1h 20mn\nBit rate mode : Constant\nBit rate : 448 Kbps\nChannel(s) : 6 channels\nChannel positions : Front: L C R, Side: L R, LFE\nSampling rate : 48.0 KHz\nBit depth : 16 bits\nCompression mode : Lossy\nDelay relative to video : 250ms\nStream size : 258 MiB (20%)\nAlignment : Split accross interleaves\nInterleave, duration : 40 ms (1.00 video frame)\n\n\n\n\n\n\n\n\n\nSOURCES:\n\n\n\nVIDEO: ............. stag dvd 9 parkiet ...thanks \nAUDIO: ............. stag dvd 9 parkiet ...thanks \n\nNOTES:\n\nMade a script to resize, slight and we mean slight denoise, then sharpened it back up a touch and remuxed the 5.1 AC3 to it :) \n\n\nSCREENS:\n[img]http://i.imgbox.com/alZjccDl.jpg[/img]\n\n[img]http://i.imgbox.com/jHSf2tSy.jpg[/img]\n\n[img]http://i.imgbox.com/YGrqSR1x.jpg[/img]\n\n[img]http://i.imgbox.com/UBUIPhb8.jpg[/img]\n\n[img]http://i.imgbox.com/GUlwMxe9.jpg[/img]\n\nGREETS:\n\n\nTo those that deserve it.. You know who you are \n\n\nLooking for not a damn thing","torrent":{"xt":"urn:btih:fed04bcda90c0feb9929fd2ae99500c522a86419","amp;dn":"Stag+2013+DvDRip+Xvid+AC3+BL4CKP34RL","amp;tr":["udp%3A%2F%2Ftracker.openbittorrent.com%3A80","udp%3A%2F%2Fopen.demonii.com%3A1337","udp%3A%2F%2Ftracker.coppersurfer.tk%3A6969","udp%3A%2F%2Fexodus.desync.com%3A6969"],"infoHash":"fed04bcda90c0feb9929fd2ae99500c522a86419","infoHashBuffer":{"type":"Buffer","data":[254,208,75,205,169,12,15,235,153,41,253,42,233,149,0,197,34,168,100,25]},"announce":[],"urlList":[]}}